<svg width="400" height="400" viewBox="0 0 400 400" fill="none" xmlns="http://www.w3.org/2000/svg">
<circle cx="200" cy="200" r="199.507" fill="#F6F1F9"/>
<path d="M200.848 25.3391C224.682 25.3343 248.264 30.2222 270.139 39.701C292.013 49.1799 311.715 63.0485 328.028 80.4505" stroke="#7377AD" stroke-width="24" stroke-linecap="round" stroke-linejoin="round"/>
<path d="M346.681 105.887C352.638 114.486 357.746 123.567 361.942 133.019" stroke="#F7D74F" stroke-width="24" stroke-linecap="round" stroke-linejoin="round"/>
<path d="M371.269 163.542C374.213 179.14 375.247 195.113 374.345 211.023" stroke="#F58620" stroke-width="24" stroke-linecap="round" stroke-linejoin="round"/>
<path d="M368.725 241.546C362.295 267.437 350.116 291.505 333.115 311.919" stroke="#089AA0" stroke-width="24" stroke-linecap="round" stroke-linejoin="round"/>
<path d="M311.07 334.305C275.961 363.648 230.979 377.903 185.694 374.039C140.408 370.175 98.3913 348.496 68.5803 313.614" stroke="#E5532D" stroke-width="24" stroke-linecap="round" stroke-linejoin="round"/>
<path d="M49.0793 288.179C46.6282 283.767 44.3649 279.24 42.2964 274.613" stroke="#F7E025" stroke-width="24" stroke-linecap="round" stroke-linejoin="round"/>
<path d="M31.2425 244.937C25.0829 221.878 23.7257 197.803 27.2545 174.2C30.7834 150.597 39.1235 127.967 51.7598 107.705C64.3961 87.4445 81.0604 69.9833 100.724 56.4C120.387 42.8167 142.632 33.3998 166.085 28.7306" stroke="#44B137" stroke-width="24" stroke-linecap="round" stroke-linejoin="round"/>
<circle cx="200" cy="200" r="147.783" fill="black"/>
<path d="M200 300.493L111.33 241.379V123.153L200 182.266L288.67 123.153V241.379L200 300.493Z" stroke="white" stroke-width="12" stroke-linejoin="round"/>
<path d="M188.177 229.557L158.62 211.823V247.291L188.177 229.557Z" stroke="white" stroke-width="12" stroke-linejoin="round"/>
<path d="M241.379 211.823L211.823 229.557L241.379 247.291V211.823Z" stroke="white" stroke-width="12" stroke-linejoin="round"/>
</svg>
