<svg width="150" height="150" viewBox="0 0 150 150" fill="none" xmlns="http://www.w3.org/2000/svg">
    <path fill-rule="evenodd" clip-rule="evenodd"
        d="M0 0H150V150H0V0ZM25 76.4132C25 48.5347 47.3698 26 75.0414 26C102.63 26 125.082 48.5347 125 76.4132C125 98.698 110.667 117.561 90.7829 124.239C88.2979 124.74 87.3863 123.153 87.3863 121.818C87.3863 120.149 87.4682 114.723 87.4682 107.963C87.4682 103.205 85.8949 100.201 84.0716 98.615C95.257 97.3623 106.938 93.1063 106.938 73.7418C106.938 68.2331 105.033 63.7262 101.801 60.221C102.298 58.9693 104.039 53.7935 101.305 46.8661C101.305 46.8661 97.0793 45.5304 87.5512 52.0409C83.5738 50.9562 79.2666 50.3713 75.0414 50.3713C70.8159 50.376 66.6094 50.9374 62.5305 52.0409C53.0035 45.5304 48.7782 46.8661 48.7782 46.8661C46.0433 53.7935 47.7836 58.9693 48.2804 60.221C45.1317 63.7262 43.1445 68.2331 43.1445 73.7418C43.1445 93.1063 54.8257 97.4463 65.9281 98.615C64.5197 99.8667 63.1932 102.12 62.7794 105.375C59.8796 106.711 52.6716 108.881 48.1984 101.202C48.1984 101.202 45.5465 96.3615 40.4926 96.0276C40.4926 96.0276 35.6046 96.0276 40.1607 99.1159C40.1607 99.1159 43.4754 100.618 45.7125 106.46C45.7125 106.46 48.6112 115.475 62.5315 112.47C62.5315 116.644 62.6135 120.65 62.6135 121.819C62.6135 123.153 61.7029 124.74 59.2169 124.238C39.3331 117.562 25 98.698 25 76.4132Z"
        fill="white" />
</svg>